<svg width="25" height="70" viewBox="0 0 25 70" fill="none" xmlns="http://www.w3.org/2000/svg">
<path d="M0.937499 7.14123C0.937499 4.84055 1.63816 3.20918 3.03946 2.24709C4.44077 1.285 6.35449 0.803954 8.78063 0.803954C11.6669 0.803954 14.344 1.25363 16.812 2.15297C19.28 3.05232 21.246 4.30722 22.71 5.91768C24.195 7.54907 24.9375 9.40005 24.9375 11.4706C24.9375 13.4785 24.2682 14.9844 22.9297 15.9883C21.5911 17.0131 19.7506 17.5255 17.4081 17.5255C15.0865 17.5255 12.6499 17.17 10.0983 16.4589C7.56756 15.7478 5.40286 14.6079 3.60416 13.0393C1.82639 11.4916 0.937499 9.52554 0.937499 7.14123ZM3.29044 7.54907C3.29044 8.53208 4.04338 9.4628 5.54926 10.3412C7.05514 11.2197 8.98978 11.9203 11.3532 12.4432C13.7166 12.987 16.1009 13.2589 18.5061 13.2589C19.8238 13.2589 20.9114 13.102 21.7689 12.7883C22.6473 12.4746 23.0865 12.0249 23.0865 11.4393C23.0865 10.4772 22.3231 9.536 20.7963 8.61574C19.2695 7.69548 17.3244 6.94254 14.961 6.35689C12.5976 5.77127 10.2761 5.47846 7.99632 5.47846C4.85907 5.47846 3.29044 6.16865 3.29044 7.54907ZM1.06299 29.0674C1.06299 27.7707 1.36626 26.7877 1.97279 26.1184C2.60024 25.4491 3.48913 25.1145 4.63946 25.1145C5.14142 25.1145 5.68521 25.1772 6.27083 25.3027L7.49436 25.5537C7.84991 25.6374 8.23684 25.6792 8.65514 25.6792C9.65906 25.6792 10.161 25.3027 10.161 24.5498C10.161 24.2151 10.0669 23.8596 9.87867 23.4831C9.69044 23.1276 9.39763 22.7093 9.00024 22.2282L1.25123 20.5968L1.25123 16.0792L22.5846 20.6282L23.212 25.2714L12.1689 22.9184L16.9375 28.9733L16.9375 32.0792L12.5767 25.8047C12.6604 26.1184 12.7022 26.4635 12.7022 26.84C12.7022 27.9694 12.3571 28.8269 11.6669 29.4125C10.9767 29.9981 10.0983 30.291 9.03161 30.291C8.5924 30.291 8.19501 30.2491 7.83945 30.1655L6.27083 29.8204C5.89436 29.7158 5.55972 29.6635 5.26691 29.6635C4.49305 29.6635 4.10612 30.0713 4.10612 30.887C4.10612 31.5145 4.32573 32.0164 4.76495 32.3929C5.22508 32.7694 5.92573 33.1459 6.86691 33.5223L6.86691 34.84C2.99763 33.5432 1.06299 31.6191 1.06299 29.0674ZM1.06299 37.9953C1.06299 36.4476 1.46038 35.245 2.25515 34.3875C3.07083 33.53 4.33619 33.1012 6.05122 33.1012C7.49436 33.1012 9.0839 33.3836 10.8198 33.9483C12.5558 34.5339 14.0512 35.4542 15.3061 36.7091C16.5819 37.9849 17.2198 39.5953 17.2198 41.5404C17.2198 42.7953 16.9479 43.6842 16.4042 44.2071C15.8604 44.7509 15.1702 45.0228 14.3336 45.0228C13.6015 45.0228 13.0368 44.8659 12.6395 44.5522C12.2421 44.2385 12.0434 43.8411 12.0434 43.36C12.0434 43.0045 12.1689 42.6385 12.4198 42.262C13.11 42.513 13.727 42.6385 14.2708 42.6385C14.6682 42.6385 14.9819 42.5653 15.212 42.4189C15.4421 42.2725 15.5571 42.0528 15.5571 41.76C15.5571 41.1326 15.0447 40.5051 14.0198 39.8777C12.995 39.2502 11.7506 38.7378 10.2865 38.3404C8.82246 37.943 7.50481 37.7444 6.33357 37.7444C5.30874 37.7444 4.60808 37.9221 4.23161 38.2777C3.87606 38.6332 3.69828 39.2084 3.69828 40.0032C3.69828 41.1326 3.95972 42.0947 4.4826 42.8894C5.00547 43.7051 5.80024 44.594 6.86691 45.5561L6.86691 46.6228C2.99763 44.3012 1.06299 41.4254 1.06299 37.9953ZM1.06299 49.3142C1.06299 48.1221 1.47083 47.1286 2.28652 46.3338C3.1022 45.5391 4.37802 45.1417 6.11397 45.1417C7.66168 45.1417 9.28259 45.4449 10.9767 46.0515C12.6917 46.6789 14.1349 47.5992 15.3061 48.8123C16.4983 50.0462 17.0944 51.5103 17.0944 53.2044C17.0944 54.0619 16.9479 54.6998 16.6551 55.1181C16.3623 55.5364 15.9754 55.7456 15.4944 55.7456L15.2747 55.7456L16.9375 56.0907L16.9375 60.6083L6.27083 58.3495C5.9571 58.2658 5.62246 58.224 5.26691 58.224C4.36756 58.224 3.91789 58.6528 3.91789 59.5103C3.91789 60.0959 4.18978 60.5979 4.73357 61.0162C5.27736 61.4554 5.98847 61.8005 6.86691 62.0515L6.86691 63.3691C4.60808 62.5952 3.07083 61.6332 2.25515 60.4828C1.46037 59.3534 1.06299 58.2136 1.06299 57.0632C1.06299 56.1848 1.30351 55.4737 1.78456 54.9299C2.28652 54.407 3.00809 54.0933 3.94926 53.9887C3.09175 53.3822 2.39109 52.7024 1.8473 51.9495C1.32443 51.2175 1.06299 50.339 1.06299 49.3142ZM4.10612 51.3534C4.10612 51.8763 4.34665 52.3887 4.82769 52.8907C5.32965 53.4136 6.00939 53.7691 6.86691 53.9574L13.9571 55.4632C14.229 55.4632 14.4904 55.3587 14.7414 55.1495C15.0133 54.9404 15.1493 54.6162 15.1493 54.177C15.1493 53.3404 14.6578 52.5874 13.6747 51.9181C12.7127 51.2489 11.5414 50.726 10.161 50.3495C8.80155 49.973 7.59893 49.7848 6.55318 49.7848C5.50743 49.7848 4.83815 49.9312 4.54534 50.224C4.25253 50.5377 4.10612 50.9142 4.10612 51.3534ZM1.06299 65.1061C1.06299 64.1022 1.37671 63.2865 2.00416 62.659C2.65253 62.0525 3.61462 61.7492 4.89044 61.7492C5.41331 61.7492 6.09305 61.8329 6.92965 62.0002L22.6473 65.3571L23.2747 70L6.33357 66.3921C6.01985 66.3084 5.71658 66.2666 5.42377 66.2666C4.58717 66.2666 4.16887 66.6954 4.16887 67.5529C4.16887 67.9294 4.23161 68.264 4.3571 68.5568C3.31135 68.4732 2.49567 68.0967 1.91005 67.4274C1.34534 66.779 1.06299 66.0052 1.06299 65.1061Z" fill="white"/>
</svg>
