<svg width="25" height="133" viewBox="0 0 25 133" fill="none" xmlns="http://www.w3.org/2000/svg">
<path d="M0.951743 37.3276L0.951743 33.2753L14.6253 33.2754C15.7577 33.2754 16.7903 32.9976 17.7233 32.4421C18.6562 31.8866 19.3968 31.1389 19.9523 30.1988C20.5078 29.2587 20.7856 28.2261 20.7856 27.0938C20.7856 26.0113 20.5292 25.0213 20.0236 24.1169C19.5179 23.2124 18.8342 22.4789 17.9725 21.9163C17.1179 21.3537 16.1494 21.0332 15.0811 20.9478C14.9244 20.9478 14.7678 20.9478 14.6182 20.9478H0.9375L0.9375 16.867H14.6253C14.7749 16.867 14.9244 16.8742 15.0882 16.8813C16.1565 16.7958 17.125 16.4682 17.9796 15.9056C18.8342 15.343 19.5179 14.6024 20.0307 13.705C20.5363 12.8077 20.7927 11.8178 20.7927 10.7353C20.7927 9.58871 20.5149 8.55606 19.9595 7.62313C19.404 6.69019 18.6562 5.94241 17.7233 5.38693C16.7903 4.83144 15.7577 4.55369 14.6253 4.55369L0.944621 4.55369L0.944621 0.501465L14.6253 0.501465C16.4983 0.501466 18.2075 0.964374 19.7601 1.88307C21.3055 2.80176 22.5375 4.04093 23.4633 5.58633C24.382 7.13173 24.8449 8.84805 24.8449 10.7353C24.8449 12.4089 24.4746 13.9543 23.7411 15.3644C23.0075 16.7745 22.0034 17.9638 20.7428 18.9181C22.0034 19.8581 23.0004 21.0403 23.7411 22.4575C24.4746 23.8748 24.8449 25.4202 24.8449 27.0938C24.8449 28.981 24.382 30.6973 23.4633 32.2427C22.5446 33.7881 21.3055 35.0202 19.76 35.946C18.2146 36.8647 16.5055 37.3276 14.6253 37.3276H0.951743Z" fill="white"/>
<path d="M24.8236 52.6605C24.8236 54.854 24.2895 56.8552 23.2141 58.6569C22.1387 60.4658 20.7001 61.9044 18.8912 62.9798C17.0823 64.0552 15.0811 64.5893 12.8806 64.5893C10.6871 64.5893 8.68589 64.0552 6.88411 62.9798C5.07521 61.9044 3.63663 60.4659 2.56126 58.6569C1.48589 56.848 0.951768 54.854 0.951768 52.6605C0.951768 50.4599 1.48589 48.4516 2.56126 46.6498C3.63664 44.8409 5.07521 43.4023 6.88411 42.327C8.69302 41.2516 10.6871 40.7175 12.8806 40.7175C15.0811 40.7175 17.0895 41.2516 18.8912 42.327C20.7001 43.4023 22.1387 44.8409 23.2141 46.6498C24.2895 48.4516 24.8236 50.4528 24.8236 52.6605ZM4.99687 52.6605C4.99687 54.0991 5.35296 55.4166 6.058 56.613C6.77017 57.8095 7.71735 58.7638 8.90667 59.4759C10.096 60.1881 11.4206 60.5371 12.8734 60.5371C14.3263 60.5371 15.6509 60.181 16.8473 59.4759C18.0438 58.7638 18.9981 57.8166 19.7102 56.613C20.4224 55.4166 20.7714 54.0991 20.7714 52.6605C20.7714 51.2077 20.4153 49.8831 19.7102 48.6866C18.9981 47.4902 18.0509 46.5359 16.8473 45.8237C15.6509 45.1115 14.3263 44.7626 12.8734 44.7626C11.4206 44.7626 10.1031 45.1187 8.90667 45.8237C7.71735 46.5359 6.76305 47.4831 6.058 48.6866C5.35296 49.8831 4.99687 51.2077 4.99687 52.6605Z" fill="white"/>
<path d="M14.0698 81.7952H10.0176L10.0176 67.5233H14.0698L14.0698 81.7952Z" fill="white"/>
<path d="M24.8235 96.95C24.8235 99.1434 24.2894 101.145 23.214 102.946C22.1387 104.748 20.7001 106.194 18.8912 107.269C17.0823 108.345 15.0811 108.879 12.8805 108.879C10.687 108.879 8.68585 108.337 6.88406 107.269C5.07516 106.194 3.63659 104.755 2.56121 102.946C1.48584 101.138 0.951719 99.1434 0.951719 96.95C0.95172 94.7494 1.48584 92.7411 2.56122 90.9393C3.63659 89.1304 5.07516 87.6918 6.88407 86.6164C8.69297 85.5411 10.687 85.0069 12.8805 85.0069C15.0811 85.0069 17.0894 85.5411 18.8912 86.6164C20.7001 87.6918 22.1387 89.1304 23.214 90.9393C24.2894 92.7411 24.8235 94.7422 24.8235 96.95ZM4.99682 96.95C4.99682 98.3885 5.35291 99.706 6.05795 100.902C6.77012 102.099 7.7173 103.053 8.90662 103.765C10.0959 104.478 11.4206 104.834 12.8734 104.834C14.3262 104.834 15.6508 104.478 16.8473 103.765C18.0437 103.053 18.998 102.106 19.7102 100.902C20.4223 99.706 20.7713 98.3885 20.7713 96.95C20.7713 95.4971 20.4152 94.1725 19.7102 92.9761C18.998 91.7796 18.0508 90.8253 16.8473 90.1132C15.6508 89.401 14.3262 89.052 12.8734 89.052C11.4206 89.052 10.1031 89.4081 8.90662 90.1132C7.7173 90.8253 6.763 91.7725 6.05795 92.9761C5.35291 94.1725 4.99682 95.4971 4.99682 96.95Z" fill="white"/>
<path d="M24.9375 122.068C24.9375 123.941 24.4746 125.658 23.5559 127.21C22.6372 128.763 21.398 130.002 19.8526 130.921C18.3072 131.839 16.5909 132.302 14.7037 132.302H0.944616L0.944616 128.25H14.7037C15.8503 128.25 16.8829 127.972 17.8158 127.41C18.7488 126.847 19.4894 126.099 20.0449 125.173C20.6004 124.248 20.8781 123.208 20.8781 122.076C20.8781 120.943 20.6004 119.903 20.0449 118.97C19.4894 118.03 18.7416 117.283 17.8158 116.727C16.8829 116.172 15.8431 115.894 14.7037 115.894H0.944617L0.944617 111.842H14.7037C16.5909 111.842 18.3072 112.305 19.8526 113.223C21.398 114.142 22.6301 115.381 23.5559 116.927C24.4746 118.465 24.9375 120.181 24.9375 122.068Z" fill="white"/>
</svg>
