<svg width="25" height="206" viewBox="0 0 25 206" fill="none" xmlns="http://www.w3.org/2000/svg">
<path d="M24.1865 188.547C23.9443 189.638 23.7021 190.728 23.4598 191.697C22.9753 193.877 21.6431 195.088 19.4629 195.451C18.3729 195.693 17.2828 195.693 15.9505 195.815C15.9505 193.392 15.9505 191.091 15.9505 188.669C18.2518 187.821 18.3729 187.579 18.3729 184.914C18.3729 182.128 18.3729 179.343 18.3729 176.436C18.3729 173.65 17.2828 172.439 14.4971 172.56C12.4381 172.56 10.3791 172.681 8.32013 172.802C6.74561 172.923 6.0189 173.771 6.0189 175.225C6.0189 178.858 6.0189 182.492 6.0189 186.125C6.0189 187.821 6.98784 188.426 8.92572 188.305C8.92572 185.398 8.92572 182.492 8.92572 179.585C10.6214 179.585 12.0748 179.585 13.7704 179.585C13.7704 184.914 13.7704 190.243 13.7704 195.693C13.5282 195.693 13.1648 195.815 12.8015 195.815C10.7425 195.815 8.68349 195.815 6.50337 195.815C2.50649 195.693 0.447495 193.998 0.326377 189.88C0.20526 183.945 0.084143 178.131 0.326378 172.197C0.447496 168.563 1.90091 165.414 6.98784 165.172C10.5002 165.051 14.1338 165.051 17.6462 165.293C21.0375 165.414 23.0965 167.715 23.5809 171.591C23.7021 172.076 23.8232 172.439 23.8232 172.802C24.1865 178.131 24.1865 183.339 24.1865 188.547Z" fill="#EEEEEE"/>
<path d="M3.35435 205.988C3.11212 205.867 2.86988 205.746 2.74877 205.625C1.05312 204.777 0.326417 203.082 0.689769 201.386C1.05312 199.69 2.50653 198.479 4.20218 198.479C6.01894 198.479 7.47235 199.69 7.95682 201.507C8.32017 203.082 7.47235 204.777 5.89782 205.625C5.65559 205.746 5.41335 205.867 5.29224 205.988C4.56553 205.988 3.95994 205.988 3.35435 205.988Z" fill="#EEEEEE"/>
<path d="M0.689615 111.153C0.689615 108.852 0.689615 106.551 0.689615 104.25C6.01878 104.25 11.2268 104.25 16.556 104.25C16.556 104.129 16.6771 104.129 16.6771 104.008C16.3138 103.765 16.0715 103.523 15.7082 103.402C11.1057 100.737 6.50326 98.1939 1.77967 95.5293C0.810735 95.0448 0.326265 94.3181 0.5685 93.2281C0.5685 93.1069 0.5685 92.9858 0.5685 92.9858C-0.0370876 90.079 1.41632 88.6256 3.83867 87.4144C7.83555 85.4765 11.5902 83.0542 15.466 80.8741C15.8293 80.6318 16.3138 80.3896 17.0405 79.9051C11.348 79.9051 6.01879 79.9051 0.689616 79.9051C0.689616 77.4828 0.689616 75.1816 0.689616 72.8803C8.44114 72.8803 16.0715 72.8803 23.9442 72.8803C23.9442 76.3927 23.9442 79.784 23.9442 83.2964C23.9442 83.7809 23.3386 84.2654 22.8541 84.5076C18.7361 86.8088 14.6181 88.989 10.6213 91.1691C10.2579 91.4113 9.77343 91.6535 9.28896 92.0169C9.77343 92.3802 10.1368 92.6225 10.5001 92.7436C14.6181 94.9237 18.7361 97.2249 22.733 99.4051C23.7019 99.8895 24.0653 100.495 24.0653 101.706C23.9442 104.855 24.0653 108.004 24.0653 111.153C16.1927 111.153 8.56225 111.153 0.689615 111.153Z" fill="#EEEEEE"/>
<path d="M16.7983 136.225C16.3138 136.225 15.8293 136.225 15.466 136.225C10.8635 136.225 6.38217 136.225 1.77971 136.225C0.931883 136.225 0.56853 135.983 0.56853 135.014C0.689648 133.076 0.56853 131.017 0.568531 128.958C8.32005 128.958 16.0716 128.958 23.9442 128.958C23.9442 131.017 23.702 133.076 23.9442 135.135C24.5498 138.889 22.9753 141.191 19.9473 143.25C15.8293 146.156 11.9536 149.548 8.07781 152.697C7.83558 152.818 7.71446 153.06 7.22999 153.424C12.8014 153.424 18.2517 153.424 23.702 153.424C23.702 155.967 23.702 158.268 23.702 160.691C15.9505 160.691 8.32005 160.691 0.447411 160.691C0.447411 160.206 0.447411 159.722 0.447411 159.358C0.447411 156.694 0.447411 154.029 0.326294 151.486C0.326294 150.153 0.689647 149.306 1.65859 148.579C6.38217 144.824 11.1058 141.07 15.8293 137.315C16.1927 137.073 16.4349 136.83 16.6772 136.588C16.7983 136.467 16.7983 136.346 16.7983 136.225Z" fill="#EEEEEE"/>
<path d="M7.23003 25.2812C13.0437 25.2812 18.3728 25.2812 23.8231 25.2812C23.8231 27.7035 23.8231 30.1259 23.8231 32.5482C16.0716 32.5482 8.32008 32.5482 0.568563 32.5482C0.568563 30.0047 0.810797 27.5824 0.447445 25.16C0.0840925 22.2532 1.29527 20.5576 3.47538 18.9831C8.07785 15.4706 12.5592 11.8371 17.4039 7.96136C11.5903 7.96136 6.13997 7.96136 0.568564 7.96136C0.568564 5.53901 0.568564 3.23778 0.568564 0.81543C8.32008 0.81543 16.0716 0.81543 23.8231 0.815431C23.8231 1.54214 23.8231 2.26884 23.8231 2.87443C23.8231 5.29678 23.8231 7.84025 23.8231 10.2626C23.8231 11.4738 23.4598 12.2005 22.4908 12.9272C17.6461 16.8029 12.9225 20.5576 8.07785 24.4333C7.95673 24.5545 7.7145 24.7967 7.23003 25.2812Z" fill="#EEEEEE"/>
<path d="M0.447642 70.0947C0.447642 67.5512 0.447642 65.25 0.447642 62.8276C0.447642 62.3431 0.932111 61.7376 1.41658 61.6164C4.08117 60.7686 4.92899 58.9519 4.68675 56.1661C4.44452 53.0171 4.56564 49.868 4.68676 46.8401C4.68676 45.8712 4.44452 45.0233 3.47558 44.7811C0.810995 44.0544 0.205408 42.2376 0.568761 39.6942C0.810996 38.3619 0.568759 36.9085 0.689877 35.5762C0.689877 35.4551 0.810995 35.4551 0.810995 35.2128C1.05323 35.3339 1.29547 35.4551 1.5377 35.5762C8.68363 39.4519 15.7084 43.3277 22.8544 47.2035C23.5811 47.5668 24.0656 48.0513 23.9444 49.0202C23.8233 51.4426 23.9444 53.7438 23.8233 56.1661C23.8233 56.6506 23.46 57.4984 22.9755 57.7407C15.7084 61.8587 8.32028 65.8555 1.05323 69.9735C1.05323 69.9735 0.932112 69.9735 0.447642 70.0947ZM9.89481 48.1724C9.89481 51.2003 9.89481 53.986 9.89481 57.014C12.8016 55.4394 15.4662 53.986 18.373 52.5326C15.4662 51.0792 12.8016 49.6258 9.89481 48.1724Z" fill="#EEEEEE"/>
<path d="M0.568561 123.507C0.568561 121.206 0.568561 118.905 0.568561 116.483C8.32008 116.483 16.0716 116.483 23.8231 116.483C23.8231 118.784 23.8231 121.085 23.8231 123.507C16.1927 123.507 8.4412 123.507 0.568561 123.507Z" fill="#EEEEEE"/>
</svg>
