<svg width="25" height="109" viewBox="0 0 25 109" fill="none" xmlns="http://www.w3.org/2000/svg">
<path d="M11.823 14.7132C12.8826 16.8325 15.8207 23.8166 19.3369 23.8166C22.9011 23.8166 24.0089 17.9885 24.4424 14.3279C24.9241 10.6673 25.0204 7.15118 24.8759 4.45389C24.7314 1.7566 24.1053 0.407959 23.3346 0.407959C22.6121 0.407959 22.3713 1.41944 22.3713 1.7566C22.3713 2.09376 22.5158 2.67175 22.7566 3.10525C22.9975 3.53874 23.4791 3.68324 23.6236 4.83922C24.2979 10.1375 23.1901 15.1949 23.1901 15.1949C21.8896 21.5528 19.8185 21.3119 19.2405 21.3601C18.6625 21.3601 17.3139 21.0711 14.5684 17.266C12.4491 14.2797 10.7152 10.7154 9.94451 8.98148C10.4262 9.02965 10.8597 9.02965 11.1968 9.07781C13.4606 9.31864 18.7107 10.1856 20.252 10.3301C21.8415 10.4746 22.0341 9.5113 22.0341 9.5113C22.1305 8.30716 20.1557 8.21083 20.1557 8.21083C20.1557 8.21083 18.4699 8.06633 14.1349 7.72917C12.6418 7.63284 10.9078 7.5365 9.22203 7.48834C9.02936 7.10301 8.8367 6.86218 8.49954 6.91035C8.21054 6.95851 8.21054 7.24751 8.25871 7.44017C5.56142 7.39201 3.29763 7.39201 2.9123 7.39201C2.33431 7.39201 0.9375 7.5365 0.9375 8.01816C0.9375 8.54799 1.70815 8.64432 2.67147 8.64432C3.39396 8.64432 6.42841 8.74065 8.88487 8.83698C9.84818 10.5228 11.1005 13.2682 11.823 14.7132Z" fill="white"/>
<path d="M16.0616 35.0392C16.2542 34.5575 15.6281 34.0277 13.9423 33.0162C12.2565 32.0048 6.47657 29.2593 6.47657 27.9588C6.47657 26.6583 10.089 27.9107 10.1853 26.9473C10.2817 25.9359 5.75409 23.3831 5.75409 22.3234C5.75409 21.2638 10.1853 22.3234 10.3298 21.5046C10.4262 20.6858 6.09125 17.844 6.18758 17.0252C6.28391 16.399 8.30688 16.688 9.55919 16.688C9.55919 16.688 10.8597 16.7362 10.8597 15.3875C10.8597 14.0389 9.84818 12.4494 6.95823 11.3416C4.11645 10.2338 2.47881 12.4494 5.46509 14.2797C5.46509 14.2797 7.58439 15.5802 7.10273 15.5802C6.5729 15.5802 4.79077 15.7247 4.79077 16.688C4.79077 17.6513 6.04308 18.711 6.57291 19.1445C7.10273 19.6261 8.64404 20.7339 7.87338 20.6858C7.10273 20.6376 3.68295 20.156 3.68295 21.9863C3.68295 23.1904 5.99491 24.5872 6.38024 24.8762C6.81373 25.1652 9.02936 26.4175 8.01788 26.4175C7.0064 26.4175 4.5981 26.0322 4.5981 27.6217C4.5981 29.2111 8.78853 31.0896 9.89635 31.7639C10.956 32.4382 13.1716 33.4979 13.1235 33.6906C13.0753 33.8832 8.93303 33.0644 7.68072 32.8717C6.42841 32.6791 2.33431 32.0529 2.6233 33.2571C2.86413 34.3167 4.69444 33.7387 5.32059 33.7387C5.85042 33.7387 8.9812 34.1241 10.5225 34.413C12.0156 34.5094 15.8689 35.5209 16.0616 35.0392ZM9.36652 15.4357C9.36652 15.4357 5.99492 13.3646 5.99492 12.7866C5.99492 12.2086 7.10273 12.3049 8.30688 13.2682C9.46286 14.2316 9.60735 15.0504 9.55919 15.3394C9.51102 15.5802 9.36652 15.4357 9.36652 15.4357Z" fill="white"/>
<path d="M14.3276 50.5486C14.3758 49.1518 14.3758 47.9477 14.3758 46.9362C15.9171 49.8743 18.6625 56.184 21.1672 56.184C23.5273 56.184 24.3943 51.4156 24.7314 48.622C25.0686 45.8284 24.8759 43.2274 24.7796 41.1563C24.6833 39.0851 24.1053 38.2663 23.5755 38.2663C23.0456 38.2663 22.9493 39.037 22.9493 39.2778C22.9493 39.5186 23.0456 40.0003 23.2383 40.3375C23.431 40.6746 23.8644 40.9154 23.9608 41.7824C24.2016 43.8536 24.3943 45.8284 24.1534 48.1403C23.8163 51.7528 22.2268 53.6794 21.2153 53.6794C20.3483 53.6794 18.9034 52.7642 17.0249 49.8743C15.7244 47.8513 14.7611 45.9729 14.2794 44.865C14.2794 44.7205 14.2794 44.576 14.2313 44.4797C16.8804 44.865 20.541 45.443 21.8896 45.5875C23.5273 45.732 23.6718 44.9132 23.6718 44.9132C23.8163 43.8054 21.7451 43.7091 21.7451 43.7091C21.7451 43.7091 19.963 43.4201 15.4836 43.1792C15.0501 43.1792 14.5684 43.1311 14.0868 43.0829C14.0868 43.0829 13.8941 41.8788 13.7014 41.3489C13.5088 40.8191 13.268 40.5783 12.9308 40.5783C12.5936 40.5783 12.3046 40.9154 12.3046 41.4934C12.3046 41.6379 12.3528 42.2159 12.4491 43.0347C8.40321 42.8421 4.06828 42.6012 3.58662 42.6012C3.10496 42.6012 2.38248 42.6012 2.04531 42.8421C2.04531 42.8421 1.70815 42.9384 1.90082 43.7091C2.09348 44.4797 3.24946 47.5142 4.79077 50.6931C6.33208 53.8721 8.5477 58.1588 10.956 58.1588C13.2198 58.1588 14.1349 55.6542 14.3276 50.5486ZM5.36876 49.5371C3.92378 46.6472 3.29763 44.4315 3.2013 44.0944C3.10496 43.6609 3.73112 43.6609 3.73112 43.6609C5.46509 43.7091 10.3298 44.0462 12.4973 44.287C12.69 46.31 12.8826 49.0073 12.8826 50.6931C12.8826 53.5349 12.3528 56.2322 10.7152 56.2322C9.07753 56.184 6.81373 52.4271 5.36876 49.5371Z" fill="white"/>
<path d="M16.9286 107.384C16.9286 106.806 16.4951 105.939 16.3506 104.735C16.2542 103.531 15.9652 96.4988 15.9652 96.4988C15.9652 96.4988 17.5065 97.414 18.6625 97.8475C19.8185 98.281 22.5158 98.9553 22.5158 97.7993C22.5158 96.6433 18.0364 96.258 15.9652 95.2465L16.0134 88.7441C16.0134 88.7441 18.9034 90.0928 19.674 90.0928C20.4447 90.0446 20.3965 89.7075 20.3965 89.563C20.3965 89.4185 20.3483 88.7923 18.9515 87.9253C17.5547 87.0583 16.1097 86.4803 16.1097 86.4803C16.1097 86.4803 16.2542 82.6752 16.3024 82.4344C16.3506 82.1936 16.3024 81.5193 15.8207 81.3748C15.3391 81.2303 15.1946 82.0972 15.1464 83.0124C15.0983 83.9275 15.0019 85.9023 15.0019 85.9023C15.0019 85.9023 12.112 84.8909 11.4377 84.7464C11.4377 84.7464 9.41469 83.3496 8.01788 82.0009C6.62107 80.7004 5.22426 78.6775 5.22426 78.0513C5.22426 77.4252 5.99491 77.3288 5.99491 77.3288C5.99491 77.3288 6.33207 78.1476 6.95823 79.0146C7.63255 79.8816 8.4032 80.7486 9.65552 80.7486C10.9078 80.7486 11.1487 79.7853 11.1487 79.4C11.1487 78.9665 10.9078 77.955 9.75185 76.9435C8.59587 75.932 6.62107 75.8357 6.62107 75.8357C6.62107 75.8357 6.33207 74.5352 6.28391 74.3425C6.28391 74.3425 6.76557 74.4389 7.19906 73.9572C7.63255 73.4756 8.30687 72.4159 8.93303 72.4159C9.55918 72.4159 10.3298 73.1384 10.667 73.4274C11.0523 73.7164 11.4858 74.0054 11.823 74.0054C12.112 74.0054 12.401 73.9091 12.401 73.4274C12.401 72.9457 9.60735 70.3448 9.17386 69.8631C8.74037 69.3815 7.19906 67.503 7.19906 67.503C7.19906 67.503 8.40321 65.2874 9.36652 65.2874C10.2817 65.2874 11.245 66.636 11.534 67.4067C11.823 68.1773 12.3046 69.7668 12.8345 69.7668C13.3643 69.7668 13.4606 69.2851 13.4606 68.9961C13.4606 68.7071 13.0753 66.5397 11.4377 64.902C9.80001 63.2644 7.10273 62.4456 7.10273 62.4456C7.10273 62.4456 6.52474 62.1566 6.91006 62.2047C7.34356 62.2529 8.74037 62.3492 8.93303 62.3492C9.22202 62.3974 10.5225 62.7827 10.667 62.2529C10.667 62.2529 11.0042 61.2896 10.5225 60.1336C10.0408 58.9776 7.63255 57.0992 5.80225 57.0992C3.97195 57.0992 4.11644 58.4478 4.11644 58.496C4.11644 58.5923 4.11644 59.4111 5.94675 60.2781C6.62107 60.6153 6.7174 60.5671 6.7174 60.7598C6.7174 60.9524 6.52474 60.9043 6.13941 60.9524C5.75408 61.0006 4.06828 61.1451 4.06828 61.9158C4.06828 62.6864 5.80225 62.8309 6.7174 63.1199C7.63255 63.4089 8.6922 63.8424 8.6922 64.0351C8.6922 64.2277 7.92155 64.613 7.43989 65.2392C6.95823 65.8654 6.4284 66.5397 6.4284 66.5397C6.4284 66.5397 4.8871 63.5052 4.11644 63.5052C3.34579 63.5052 3.58662 66.0098 4.26094 67.214C4.93526 68.4181 5.60958 68.6108 6.18757 68.5626C6.62107 68.5145 6.91006 69.0925 7.34356 69.5741C7.77705 70.0558 8.64403 70.9709 8.64403 71.0673C8.64403 71.1636 8.25871 71.1154 7.87338 71.3081C7.48805 71.5008 6.7174 72.4641 6.47657 72.7531C6.23574 73.0902 6.18758 73.1384 6.09124 73.1384C5.99491 73.1384 5.89858 72.9939 5.89858 72.8494C5.89858 72.7049 5.51325 69.6705 4.64627 69.6705C3.77928 69.6705 3.82745 72.3196 3.82745 72.5122C3.82745 72.7049 4.06828 74.3425 5.27242 74.3425L5.60959 75.932C5.60959 75.932 3.77928 75.7875 3.77928 77.666C3.77928 79.5445 5.32059 80.8931 6.13941 81.6156C6.95823 82.3381 8.78853 83.783 8.98119 84.1684C8.98119 84.1684 8.01788 84.072 7.43989 84.072C6.8619 84.072 3.87561 84.1202 3.87561 86.1913C3.87561 88.2625 6.81373 90.1891 8.16238 91.2488C9.51102 92.2602 10.4743 92.9827 11.245 93.4644C12.0156 93.946 13.0271 94.6204 13.0271 94.813C13.0271 94.9575 12.9308 94.9575 12.5455 94.9094C12.1601 94.8612 5.41692 93.8015 4.7426 93.7052C4.06828 93.6089 3.77928 93.8015 3.77928 94.2832C3.77928 94.7167 3.82745 94.9094 4.5981 94.9575C5.36875 95.0057 14.8093 96.3543 14.8093 96.3543C14.8093 96.3543 14.8574 99.7741 14.9056 102.086C14.9538 104.398 14.9538 107.288 15.1464 107.721C15.2909 108.107 15.5317 108.396 16.1097 108.396C16.6877 108.396 16.9286 107.962 16.9286 107.384ZM9.51102 78.4848C10.0408 78.9665 9.84818 79.4481 9.84818 79.4481C9.51102 79.9298 8.88486 79.4963 8.64403 79.3036C8.4032 79.111 7.19906 77.9068 7.43989 77.6178C7.63255 77.3288 8.9812 78.0031 9.51102 78.4848ZM9.41469 60.9043C9.41469 60.9043 5.51325 59.1703 5.51325 58.6405C5.51325 58.1107 6.8619 58.3515 7.92155 58.8813C8.9812 59.4111 9.65552 60.1818 9.70368 60.6634C9.80001 61.2414 9.41469 60.9043 9.41469 60.9043ZM5.07976 86.4803C5.51325 84.6982 10.0408 85.3725 10.7633 85.6615C11.7266 85.9505 14.9056 88.2143 14.9056 88.2143V94.8612C10.1372 92.2602 4.69443 87.8771 5.07976 86.4803Z" fill="white"/>
</svg>
