<svg width="25" height="137" viewBox="0 0 25 137" fill="none" xmlns="http://www.w3.org/2000/svg">
<path fill-rule="evenodd" clip-rule="evenodd" d="M2.37559 59.1325L1.86778 59.334L1.68168 61.9537L1.40259 61.9537L1.40259 52.3818L1.68168 52.3818L1.68168 55.203L9.12354 52.2811L9.12354 46.1349C8.56545 46.4372 7.82126 46.538 7.07708 46.538L4.28633 46.538C2.79796 46.538 1.30959 47.1425 1.30959 48.5531C1.30959 49.2584 1.58868 49.9637 2.23987 50.669L2.05378 50.8705C1.30959 50.0644 0.937498 49.1576 0.937498 47.6463C0.937498 46.538 1.21659 45.5304 1.68168 44.7244L1.77468 44.6236C2.51887 43.616 3.63515 43.0115 5.21662 42.7092L5.7747 42.7092L1.86778 41.1979L1.86778 43.3138L1.58868 43.3138L1.58869 38.7797L1.86778 38.7797L1.86778 40.8956L6.61189 42.7092L9.30964 42.7092C11.8212 42.7092 13.2166 40.6941 13.2166 37.1676L13.2166 33.7419L1.77468 33.7419L1.77468 36.2608L1.49569 36.2608L1.49569 25.2784L1.77468 25.2784L1.77468 27.9988L9.21654 25.0769L9.21654 16.8149L1.96078 13.8929C2.61197 17.7217 5.40261 19.5353 8.28636 19.5353L8.28636 19.8376L1.58869 19.8376L1.58869 0.693847L23.9142 14.699L23.9142 9.35889C23.9142 4.62334 20.5654 2.50746 17.2166 2.50746L17.2166 2.20519L24.2863 2.20519L24.2863 19.4345L1.96078 5.42939L1.96078 13.4899L24.9375 22.558L24.9375 22.8602L6.79799 30.0139L23.9142 30.0139L23.9142 26.689L24.2863 26.689L24.2863 37.3692C24.2863 42.2055 21.9608 45.6312 18.6119 45.6312C16.1933 45.6312 14.1468 43.213 13.5887 39.7873L13.4957 39.2835L13.4027 39.7873C13.1236 41.9032 12.5654 43.5153 11.6352 44.7244L24.9375 49.9637L24.9375 50.2659L11.7791 55.4045L23.8213 55.4045L23.8213 52.2811L24.1934 52.2811L24.1934 62.3567L23.9144 62.3567L23.9144 59.2333L13.4958 59.2333L13.4958 69.2081L23.8213 69.2081L23.8213 66.0847L24.1934 66.0847L24.1934 76.1603L23.8213 76.1603L23.8213 73.0369L15.4492 73.0369C20.7516 74.1452 24.6585 78.5785 24.6585 84.0193C24.6585 89.4601 20.6585 93.8934 15.3562 95.0017L23.8213 95.0017L23.8213 91.8783L24.1934 91.8783L24.1934 99.1327L6.70509 106.185L24.1934 112.634L24.1934 134.498L18.426 134.498L18.426 134.196C21.4027 134.196 23.9144 132.483 23.9144 128.15L23.9144 123.918L13.4958 123.918L13.4958 125.43C13.4958 128.251 14.8911 129.863 17.1237 129.863L17.1237 130.165L9.58883 130.165L9.58883 129.863C11.7283 129.863 13.1237 128.251 13.1237 125.43L13.1237 123.918L1.86788 123.918L1.86788 128.049C1.86788 133.591 4.75162 135.808 8.19346 135.808L8.28645 135.808L8.28645 136.11L1.68178 136.11L1.68178 109.409L1.96088 109.409L1.96088 112.634L23.1702 112.634L1.03069 104.372L1.03069 104.271L23.8213 95.2032L1.86788 95.2032L1.86788 98.8305L1.58878 98.8305L1.58878 91.2738L1.86788 91.2738L1.86788 94.901L10.426 94.901C5.12372 93.8934 1.12369 89.3594 1.12369 83.9185C1.12369 78.4777 5.03062 74.0444 10.333 72.9361L1.86788 72.9361L1.86788 76.0596L1.58878 76.0596L1.58878 65.9839L1.86788 65.9839L1.86788 69.1074L13.2167 69.1074L13.2167 59.1325L2.37559 59.1325ZM19.8212 20.9459L9.58863 16.9156L9.58863 24.9761L19.8212 20.9459ZM23.8212 33.7419L13.4957 33.7419L13.4957 37.1676C13.4957 40.5933 14.5189 41.7017 18.4259 41.7017C22.0538 41.7017 23.8212 39.8881 23.8212 36.3616L23.8212 33.7419ZM11.1701 45.1274C10.7049 45.5304 10.1468 45.9334 9.58863 46.2357L9.58863 52.3818L19.8212 48.3516L11.2631 45.0266L11.1701 45.1274ZM1.40279 83.9185C1.40279 85.7322 1.77488 87.1427 2.70506 88.3518C4.19343 90.1654 7.26318 91.2738 12.9377 91.2738C18.519 91.2738 21.5888 90.1654 22.9841 88.3518C23.9144 87.1427 24.2865 85.7322 24.2865 83.9185C24.2865 82.1049 23.9144 80.6943 22.9841 79.4853C21.4958 77.5709 18.426 76.5633 12.8446 76.5633C7.26318 76.5633 4.19344 77.5709 2.70506 79.4853C1.77488 80.6943 1.40279 82.1049 1.40279 83.9185ZM1.86788 116.462L1.86788 120.291L23.8213 120.291L23.8213 116.462L1.86788 116.462Z" fill="white"/>
</svg>
